<svg xmlns="http://www.w3.org/2000/svg" width="1100" height="1100" viewBox="0 0 1100 1100" font-family="Malgun Gothic, Apple SD Gothic Neo, Nanum Gothic, sans-serif">
<defs><filter id="sh" x="-30%" y="-30%" width="160%" height="160%"><feDropShadow dx="0" dy="2" stdDeviation="2.5" flood-opacity="0.28"/></filter></defs>
<rect width="1100" height="1100" fill="#8fbcd4"/>
<path d="M 140.0 845.0 C 137.0 900.0 141.5 851.8 143.0 854.0 C 144.5 856.2 116.0 845.2 149.0 858.0 C 182.0 870.8 297.5 916.5 341.0 931.0 C 384.5 945.5 352.7 945.2 410.0 945.0 C 467.3 944.8 628.3 935.0 685.0 930.0 C 741.7 925.0 731.3 923.3 750.0 915.0 C 768.7 906.7 785.3 893.3 797.0 880.0 C 808.7 866.7 797.8 885.0 820.0 835.0 C 842.2 785.0 911.3 636.7 930.0 580.0 C 948.7 523.3 931.5 529.7 932.0 495.0 C 932.5 460.3 933.3 399.5 933.0 372.0 C 932.7 344.5 936.2 348.8 930.0 330.0 C 923.8 311.2 909.3 282.3 896.0 259.0 C 882.7 235.7 867.2 209.2 850.0 190.0 C 832.8 170.8 816.3 155.7 793.0 144.0 C 769.7 132.3 736.8 127.5 710.0 120.0 C 683.2 112.5 658.7 103.2 632.0 99.0 C 605.3 94.8 581.5 92.7 550.0 95.0 C 518.5 97.3 476.3 103.8 443.0 113.0 C 409.7 122.2 379.2 132.5 350.0 150.0 C 320.8 167.5 293.0 194.7 268.0 218.0 C 243.0 241.3 216.3 254.7 200.0 290.0 C 183.7 325.3 176.5 391.0 170.0 430.0 C 163.5 469.0 166.0 454.8 161.0 524.0 C 156.0 593.2 143.0 790.0 140.0 845.0 Z" fill="#9cc4d8" opacity="0.5" stroke="none"/>
<path d="M 410.0 450.0 C 419.7 440.0 455.0 451.3 480.0 450.0 C 505.0 448.7 535.8 441.2 560.0 442.0 C 584.2 442.8 610.0 440.3 625.0 455.0 C 640.0 469.7 645.0 504.2 650.0 530.0 C 655.0 555.8 659.2 588.7 655.0 610.0 C 650.8 631.3 639.2 648.3 625.0 658.0 C 610.8 667.7 589.2 666.7 570.0 668.0 C 550.8 669.3 529.2 668.7 510.0 666.0 C 490.8 663.3 467.0 666.3 455.0 652.0 C 443.0 637.7 443.5 603.7 438.0 580.0 C 432.5 556.3 426.7 531.7 422.0 510.0 C 417.3 488.3 400.3 460.0 410.0 450.0 Z" fill="#a3cbe0" stroke="#6ba0ba" stroke-width="1" opacity="0.9"/>
<g stroke="#bcd2df" stroke-width="0.5" opacity="0.35">
<line x1="50" y1="1050" x2="50" y2="50"/>
<line x1="50" y1="1050" x2="1050" y2="1050"/>
<line x1="150" y1="1050" x2="150" y2="50"/>
<line x1="50" y1="950" x2="1050" y2="950"/>
<line x1="250" y1="1050" x2="250" y2="50"/>
<line x1="50" y1="850" x2="1050" y2="850"/>
<line x1="350" y1="1050" x2="350" y2="50"/>
<line x1="50" y1="750" x2="1050" y2="750"/>
<line x1="450" y1="1050" x2="450" y2="50"/>
<line x1="50" y1="650" x2="1050" y2="650"/>
<line x1="550" y1="1050" x2="550" y2="50"/>
<line x1="50" y1="550" x2="1050" y2="550"/>
<line x1="650" y1="1050" x2="650" y2="50"/>
<line x1="50" y1="450" x2="1050" y2="450"/>
<line x1="750" y1="1050" x2="750" y2="50"/>
<line x1="50" y1="350" x2="1050" y2="350"/>
<line x1="850" y1="1050" x2="850" y2="50"/>
<line x1="50" y1="250" x2="1050" y2="250"/>
<line x1="950" y1="1050" x2="950" y2="50"/>
<line x1="50" y1="150" x2="1050" y2="150"/>
<line x1="1050" y1="1050" x2="1050" y2="50"/>
<line x1="50" y1="50" x2="1050" y2="50"/>
</g>
<path d="M 280.0 400.0 L 225.0 346.0 L 200.0 290.0 L 268.0 218.0 L 350.0 150.0 L 443.0 113.0 L 550.0 95.0 L 632.0 99.0 L 710.0 120.0 L 793.0 144.0 L 850.0 190.0 L 896.0 259.0 L 930.0 330.0 L 933.0 372.0 L 910.0 410.0 L 837.0 418.0 L 750.0 420.0 L 690.0 426.0 L 610.0 410.0 L 611.0 427.0 L 610.0 430.0 L 546.0 444.0 L 490.0 435.0 L 443.0 428.0 L 410.0 410.0 L 329.0 411.0 L 280.0 400.0 Z" fill="#c4d3dd" stroke="#5f7079" stroke-width="1.6" filter="url(#sh)"/>
<path d="M 410.0 750.0 L 416.0 714.0 L 450.0 690.0 L 480.0 679.0 L 520.0 678.0 L 552.0 666.0 L 590.0 678.0 L 623.0 675.0 L 650.0 690.0 L 715.0 711.0 L 750.0 750.0 L 791.0 793.0 L 820.0 835.0 L 797.0 880.0 L 750.0 915.0 L 685.0 930.0 L 610.0 932.0 L 541.0 935.0 L 480.0 910.0 L 439.0 871.0 L 410.0 825.0 L 398.0 788.0 L 410.0 750.0 Z" fill="#e8dba6" stroke="#5f7079" stroke-width="1.6" filter="url(#sh)"/>
<path d="M 710.0 430.0 L 724.0 412.0 L 750.0 422.0 L 833.0 412.0 L 910.0 415.0 L 932.0 495.0 L 930.0 580.0 L 882.0 623.0 L 820.0 655.0 L 764.0 675.0 L 710.0 662.0 L 686.0 625.0 L 670.0 580.0 L 667.0 536.0 L 690.0 490.0 L 694.0 455.0 L 710.0 430.0 Z" fill="#b6d5e2" stroke="#5f7079" stroke-width="1.6" filter="url(#sh)"/>
<path d="M 275.0 450.0 L 342.0 435.0 L 410.0 450.0 L 417.0 567.0 L 410.0 688.0 L 384.0 711.0 L 350.0 712.0 L 310.0 691.0 L 275.0 652.0 L 260.0 543.0 L 275.0 450.0 Z" fill="#e0b3a0" stroke="#5f7079" stroke-width="1.6" filter="url(#sh)"/>
<path d="M 170.0 620.0 L 222.0 635.0 L 275.0 620.0 L 282.0 536.0 L 275.0 450.0 L 222.0 428.0 L 170.0 430.0 L 161.0 524.0 L 170.0 620.0 Z" fill="#d3c0a8" stroke="#5f7079" stroke-width="1.6" filter="url(#sh)"/>
<path d="M 140.0 845.0 L 143.0 854.0 L 170.0 845.0 L 164.0 729.0 L 170.0 620.0 L 221.0 624.0 L 275.0 652.0 L 318.0 675.0 L 350.0 712.0 L 367.0 761.0 L 350.0 815.0 L 320.0 849.0 L 280.0 875.0 L 223.0 880.0 L 170.0 860.0 L 149.0 858.0 L 140.0 845.0 Z" fill="#bcd3b0" stroke="#5f7079" stroke-width="1.6" filter="url(#sh)"/>
<path d="M 350.0 710.0 L 389.0 716.0 L 420.0 750.0 L 462.0 825.0 L 490.0 900.0 L 458.0 931.0 L 410.0 945.0 L 341.0 931.0 L 275.0 900.0 L 254.0 858.0 L 265.0 805.0 L 282.0 768.0 L 308.0 738.0 L 325.0 712.0 L 350.0 710.0 Z" fill="#cdc2df" stroke="#5f7079" stroke-width="1.6" filter="url(#sh)"/>
<path d="M 750.0 672.0 L 782.0 666.0 L 786.0 694.0 L 754.0 698.0 L 750.0 672.0 Z" fill="#e7dcbf" stroke="#5f7079" stroke-width="1.2"/>
<path d="M 442.0 698.0 L 482.0 690.0 L 488.0 732.0 L 448.0 738.0 L 442.0 698.0 Z" fill="#e7dcbf" stroke="#5f7079" stroke-width="1.2"/>
<path d="M 490.0 400.0 C 510.8 393.0 589.2 393.0 610.0 400.0 C 630.8 407.0 635.8 435.0 615.0 442.0 C 594.2 449.0 505.8 449.0 485.0 442.0 C 464.2 435.0 469.2 407.0 490.0 400.0 Z" fill="#e3d79a" stroke="#b3a25f" stroke-width="1" opacity="0.9"/>
<path d="M 320.0 465.0 C 327.5 455.0 367.5 448.3 380.0 455.0 C 392.5 461.7 402.5 495.0 395.0 505.0 C 387.5 515.0 347.5 521.7 335.0 515.0 C 322.5 508.3 312.5 475.0 320.0 465.0 Z" fill="#e3d79a" stroke="#b3a25f" stroke-width="1" opacity="0.9"/>
<path d="M 285.0 485.0 C 291.7 477.2 325.0 472.5 335.0 478.0 C 345.0 483.5 351.7 510.2 345.0 518.0 C 338.3 525.8 305.0 530.5 295.0 525.0 C 285.0 519.5 278.3 492.8 285.0 485.0 Z" fill="#e3d79a" stroke="#b3a25f" stroke-width="1" opacity="0.9"/>
<path d="M 200.0 750.0 C 213.3 742.5 250.0 727.5 265.0 735.0 C 280.0 742.5 290.8 778.3 290.0 795.0 C 289.2 811.7 275.0 831.7 260.0 835.0 C 245.0 838.3 212.5 824.2 200.0 815.0 C 187.5 805.8 185.0 790.8 185.0 780.0 C 185.0 769.2 186.7 757.5 200.0 750.0 Z" fill="#7ba468" stroke="#4f7444" stroke-width="1.2" opacity="0.95"/>
<path d="M 305.0 750.0 C 320.0 745.0 359.2 746.7 375.0 765.0 C 390.8 783.3 404.2 837.5 400.0 860.0 C 395.8 882.5 368.3 899.2 350.0 900.0 C 331.7 900.8 300.8 882.5 290.0 865.0 C 279.2 847.5 282.5 814.2 285.0 795.0 C 287.5 775.8 290.0 755.0 305.0 750.0 Z" fill="#b39877" stroke="#7d6444" stroke-width="1" opacity="0.8"/>
<path d="M 650.0 145.0 C 683.3 141.7 790.0 180.8 810.0 200.0 C 830.0 219.2 803.3 256.7 770.0 260.0 C 736.7 263.3 630.0 239.2 610.0 220.0 C 590.0 200.8 616.7 148.3 650.0 145.0 Z" fill="#b39877" stroke="#7d6444" stroke-width="1" opacity="0.8"/>
<path d="M 297.2 830.0 L 304.2 818.0 L 311.2 830.0 Z" fill="#6d5638" stroke="#4d3c26" stroke-width="0.6"/><path d="M 316.3 830.0 L 323.3 818.0 L 330.3 830.0 Z" fill="#6d5638" stroke="#4d3c26" stroke-width="0.6"/><path d="M 335.5 830.0 L 342.5 818.0 L 349.5 830.0 Z" fill="#6d5638" stroke="#4d3c26" stroke-width="0.6"/><path d="M 354.7 830.0 L 361.7 818.0 L 368.7 830.0 Z" fill="#6d5638" stroke="#4d3c26" stroke-width="0.6"/><path d="M 373.8 830.0 L 380.8 818.0 L 387.8 830.0 Z" fill="#6d5638" stroke="#4d3c26" stroke-width="0.6"/>
<path d="M 643.0 207.5 L 650.0 195.5 L 657.0 207.5 Z" fill="#6d5638" stroke="#4d3c26" stroke-width="0.6"/><path d="M 683.0 207.5 L 690.0 195.5 L 697.0 207.5 Z" fill="#6d5638" stroke="#4d3c26" stroke-width="0.6"/><path d="M 723.0 207.5 L 730.0 195.5 L 737.0 207.5 Z" fill="#6d5638" stroke="#4d3c26" stroke-width="0.6"/><path d="M 763.0 207.5 L 770.0 195.5 L 777.0 207.5 Z" fill="#6d5638" stroke="#4d3c26" stroke-width="0.6"/>
<path d="M 810.0 490.0 C 822.5 485.8 849.2 486.7 860.0 495.0 C 870.8 503.3 877.5 526.7 875.0 540.0 C 872.5 553.3 858.3 571.7 845.0 575.0 C 831.7 578.3 805.0 569.2 795.0 560.0 C 785.0 550.8 782.5 531.7 785.0 520.0 C 787.5 508.3 797.5 494.2 810.0 490.0 Z" fill="#a9cfe0" stroke="#5f97b0" stroke-width="1.2"/>
<path d="M 230.0 802.0 C 239.3 800.0 263.0 802.0 272.0 808.0 C 281.0 814.0 286.7 829.8 284.0 838.0 C 281.3 846.2 266.3 856.0 256.0 857.0 C 245.7 858.0 228.7 850.2 222.0 844.0 C 215.3 837.8 214.7 827.0 216.0 820.0 C 217.3 813.0 220.7 804.0 230.0 802.0 Z" fill="#a9cfe0" stroke="#5f97b0" stroke-width="1.2"/>
<path d="M 700.0 750.0 C 703.0 746.7 717.7 744.0 722.0 746.0 C 726.3 748.0 729.0 758.7 726.0 762.0 C 723.0 765.3 708.3 768.0 704.0 766.0 C 699.7 764.0 697.0 753.3 700.0 750.0 Z" fill="#a9cfe0" stroke="#5f97b0" stroke-width="1.2"/>
<path d="M 348.0 508.0 C 350.7 503.0 365.3 500.3 370.0 503.0 C 374.7 505.7 378.7 519.0 376.0 524.0 C 373.3 529.0 358.7 535.7 354.0 533.0 C 349.3 530.3 345.3 513.0 348.0 508.0 Z" fill="#a9cfe0" stroke="#5f97b0" stroke-width="1.2"/>
<path d="M 222.0 764.0 C 225.7 759.0 244.3 756.3 250.0 759.0 C 255.7 761.7 259.7 775.0 256.0 780.0 C 252.3 785.0 233.7 791.7 228.0 789.0 C 222.3 786.3 218.3 769.0 222.0 764.0 Z" fill="#a9cfe0" stroke="#5f97b0" stroke-width="1.2"/>
<path d="M 710.0 595.0 C 714.7 590.2 734.3 586.8 740.0 590.0 C 745.7 593.2 748.7 609.2 744.0 614.0 C 739.3 618.8 717.7 622.2 712.0 619.0 C 706.3 615.8 705.3 599.8 710.0 595.0 Z" fill="#a9cfe0" stroke="#5f97b0" stroke-width="1.2"/>
<path d="M 502.0 728.0 C 506.2 723.3 524.8 720.0 530.0 723.0 C 535.2 726.0 537.2 741.3 533.0 746.0 C 528.8 750.7 510.2 754.0 505.0 751.0 C 499.8 748.0 497.8 732.7 502.0 728.0 Z" fill="#a9cfe0" stroke="#5f97b0" stroke-width="1.2"/>
<path d="M 632.0 334.0 C 637.0 329.3 659.7 326.0 666.0 329.0 C 672.3 332.0 675.0 347.3 670.0 352.0 C 665.0 356.7 642.3 360.0 636.0 357.0 C 629.7 354.0 627.0 338.7 632.0 334.0 Z" fill="#a9cfe0" stroke="#5f97b0" stroke-width="1.2"/>
<path d="M 200.0 565.0 C 203.0 561.2 217.7 558.5 222.0 561.0 C 226.3 563.5 229.0 576.2 226.0 580.0 C 223.0 583.8 208.3 586.5 204.0 584.0 C 199.7 581.5 197.0 568.8 200.0 565.0 Z" fill="#a9cfe0" stroke="#5f97b0" stroke-width="1.2"/>
<path d="M 902.0 490.0 C 909.0 496.7 935.7 497.0 942.0 488.0 C 948.3 479.0 947.0 442.7 940.0 436.0 C 933.0 429.3 906.3 439.0 900.0 448.0 C 893.7 457.0 895.0 483.3 902.0 490.0 Z" fill="#a9cfe0" stroke="#5f97b0" stroke-width="1.2"/>
<path d="M 370.0 595.0 L 355.0 558.0 L 350.0 510.0" fill="none" stroke="#4f8fb0" stroke-width="2.2" stroke-linecap="round" stroke-linejoin="round"/>
<path d="M 350.0 580.0 L 370.0 595.0 L 395.0 612.0" fill="none" stroke="#8a6a4a" stroke-width="2" stroke-dasharray="5 3" stroke-linecap="round" stroke-linejoin="round"/>
<path d="M 675.0 810.0 L 668.0 738.0 L 660.0 650.0 L 651.0 572.0" fill="none" stroke="#4f8fb0" stroke-width="2.4" stroke-linecap="round" stroke-linejoin="round"/>
<path d="M 228.0 502.0 L 265.0 508.0 L 308.0 510.0 L 348.0 508.0" fill="none" stroke="#4f8fb0" stroke-width="2" stroke-linecap="round" stroke-linejoin="round"/>
<path d="M 240.0 495.0 L 295.0 510.0 L 370.0 580.0" fill="none" stroke="#8a7a5a" stroke-width="1.8" stroke-dasharray="2 3" stroke-linecap="round" stroke-linejoin="round"/>
<path d="M 528.0 710.0 L 550.0 698.0 L 566.0 688.0" fill="none" stroke="#4f8fb0" stroke-width="2" stroke-linecap="round" stroke-linejoin="round"/>
<path d="M 710.0 192.0 L 630.0 235.0 L 558.0 255.0 L 547.0 350.0 L 542.0 422.0 L 542.0 440.0" fill="none" stroke="#4f8fb0" stroke-width="2.6" stroke-linecap="round" stroke-linejoin="round"/>
<path d="M 205.0 700.0 L 215.0 732.0 L 232.0 762.0 L 255.0 800.0 L 260.0 824.0" fill="none" stroke="#4f8fb0" stroke-width="2.4" stroke-linecap="round" stroke-linejoin="round"/>
<path d="M 260.0 750.0 L 310.0 760.0" fill="none" stroke="#8a7a5a" stroke-width="1.8" stroke-dasharray="2 3" stroke-linecap="round" stroke-linejoin="round"/>
<path d="M 550.0 425.0 L 550.0 350.0 L 550.0 252.0" fill="none" stroke="#8a6a3a" stroke-width="2" stroke-dasharray="6 4" stroke-linecap="round" stroke-linejoin="round"/>
<path d="M 370.0 465.0 L 410.0 545.0 L 445.0 610.0 L 465.0 645.0" fill="none" stroke="#c0532e" stroke-width="2.6" stroke-linecap="round" stroke-linejoin="round"/>
<path d="M 200.0 710.0 L 190.0 765.0 L 208.0 825.0 L 235.0 885.0 L 250.0 905.0" fill="none" stroke="#4f8fb0" stroke-width="2.6" stroke-linecap="round" stroke-linejoin="round"/>
<path d="M 550.0 250.0 L 610.0 350.0 L 650.0 410.0 L 655.0 510.0 L 665.0 580.0 L 680.0 690.0 L 685.0 790.0 L 690.0 815.0" fill="none" stroke="#7a4a2a" stroke-width="3" stroke-linecap="round" stroke-linejoin="round"/>
<path d="M 342.0 808.0 L 308.0 818.0 L 278.0 828.0 L 264.0 824.0" fill="none" stroke="#4f8fb0" stroke-width="2" stroke-linecap="round" stroke-linejoin="round"/>
<path d="M 305.0 455.0 L 350.0 495.0 L 385.0 535.0 L 395.0 580.0" fill="none" stroke="#9a3a2a" stroke-width="3" stroke-linecap="round" stroke-linejoin="round"/>
<path d="M 850.0 522.0 L 870.0 545.0 L 890.0 565.0 L 905.0 580.0" fill="none" stroke="#4f8fb0" stroke-width="2.2" stroke-linecap="round" stroke-linejoin="round"/>
<path d="M 750.0 620.0 L 770.0 635.0 L 792.0 650.0" fill="none" stroke="#6a8a5a" stroke-width="2" stroke-dasharray="5 3" stroke-linecap="round" stroke-linejoin="round"/>
<path d="M 550.0 690.0 L 550.0 580.0 L 550.0 442.0" fill="none" stroke="#255f8a" stroke-width="2.6" stroke-dasharray="2 5" stroke-linecap="round" stroke-linejoin="round"/>
<path d="M 340.0 810.0 L 365.0 720.0 L 395.0 612.0" fill="none" stroke="#9a7a4a" stroke-width="1.6" stroke-dasharray="1 4" stroke-linecap="round" stroke-linejoin="round"/>
<path d="M 862.0 512.0 L 896.0 490.0 L 928.0 462.0" fill="none" stroke="#4f8fb0" stroke-width="2.4" stroke-linecap="round" stroke-linejoin="round"/>
<path d="M 820.0 545.0 L 760.0 580.0 L 710.0 620.0 L 665.0 655.0 L 645.0 665.0" fill="none" stroke="#4f8fb0" stroke-width="3" stroke-linecap="round" stroke-linejoin="round"/>
<path d="M 810.0 510.0 L 772.0 490.0 L 745.0 452.0 L 750.0 424.0" fill="none" stroke="#4f8fb0" stroke-width="2.4" stroke-linecap="round" stroke-linejoin="round"/>
<path d="M 340.0 810.0 L 303.0 850.0 L 264.0 826.0" fill="none" stroke="#7a6a9a" stroke-width="1.8" stroke-dasharray="2 4" stroke-linecap="round" stroke-linejoin="round"/>
<path d="M 308.0 750.0 L 340.0 775.0 L 372.0 792.0" fill="none" stroke="#8a6a9a" stroke-width="2" stroke-dasharray="4 3" stroke-linecap="round" stroke-linejoin="round"/>
<path d="M 343.0 500.0 L 350.0 487.0 L 357.0 500.0 Z" fill="#9a3a2a" stroke="#5d2018" stroke-width="0.6"/>
<path d="M 378.0 540.0 L 385.0 527.0 L 392.0 540.0 Z" fill="#9a3a2a" stroke="#5d2018" stroke-width="0.6"/>
<rect x="544.5" y="692.5" width="11" height="11" fill="#1a5a8a" stroke="#fff" stroke-width="1.5" transform="rotate(45 550.0 698.0)"/>
<rect x="544.5" y="412.5" width="11" height="11" fill="#1a5a8a" stroke="#fff" stroke-width="1.5" transform="rotate(45 550.0 418.0)"/>
<circle cx="340.0" cy="810.0" r="5.5" fill="#8a1a1a" stroke="#fff" stroke-width="1.2"/>
<circle cx="680.0" cy="815.0" r="5.5" fill="#8a1a1a" stroke="#fff" stroke-width="1.2"/>
<circle cx="550.0" cy="250.0" r="5.5" fill="#8a1a1a" stroke="#fff" stroke-width="1.2"/>
<circle cx="205.0" cy="700.0" r="5.5" fill="#8a1a1a" stroke="#fff" stroke-width="1.2"/>
<circle cx="370.0" cy="595.0" r="5.5" fill="#8a1a1a" stroke="#fff" stroke-width="1.2"/>
<circle cx="230.0" cy="505.0" r="5.5" fill="#8a1a1a" stroke="#fff" stroke-width="1.2"/>
<circle cx="840.0" cy="460.0" r="5.5" fill="#8a1a1a" stroke="#fff" stroke-width="1.2"/>
<circle cx="450.0" cy="488.0" r="4" fill="none" stroke="#7a3a9a" stroke-width="1.5"/>
<circle cx="980.0" cy="870.0" r="4" fill="none" stroke="#7a3a9a" stroke-width="1.5"/>
<circle cx="158.0" cy="652.0" r="4" fill="none" stroke="#7a3a9a" stroke-width="1.5"/>
<circle cx="208.0" cy="520.0" r="2.6" fill="#3a3a3a"/>
<circle cx="680.0" cy="385.0" r="2.6" fill="#3a3a3a"/>
<circle cx="810.0" cy="425.0" r="2.6" fill="#3a3a3a"/>
<circle cx="185.0" cy="720.0" r="2.6" fill="#3a3a3a"/>
<circle cx="670.0" cy="290.0" r="2.6" fill="#3a3a3a"/>
<circle cx="320.0" cy="570.0" r="2.6" fill="#3a3a3a"/>
<circle cx="695.0" cy="495.0" r="2.6" fill="#3a3a3a"/>
<circle cx="225.0" cy="540.0" r="2.6" fill="#3a3a3a"/>
<circle cx="380.0" cy="495.0" r="2.6" fill="#3a3a3a"/>
<circle cx="185.0" cy="688.0" r="2.6" fill="#3a3a3a"/>
<circle cx="278.0" cy="844.0" r="2.6" fill="#3a3a3a"/>
<circle cx="320.0" cy="750.0" r="2.6" fill="#3a3a3a"/>
<circle cx="705.0" cy="755.0" r="2.6" fill="#3a3a3a"/>
<circle cx="682.0" cy="788.0" r="2.6" fill="#3a3a3a"/>
<circle cx="225.0" cy="685.0" r="2.6" fill="#3a3a3a"/>
<circle cx="200.0" cy="465.0" r="2.6" fill="#3a3a3a"/>
<circle cx="855.0" cy="435.0" r="2.6" fill="#3a3a3a"/>
<circle cx="840.0" cy="190.0" r="2.6" fill="#3a3a3a"/>
<circle cx="885.0" cy="510.0" r="2.6" fill="#3a3a3a"/>
<circle cx="765.0" cy="678.0" r="2.6" fill="#3a3a3a"/>
<circle cx="825.0" cy="505.0" r="2.6" fill="#3a3a3a"/>
<circle cx="810.0" cy="215.0" r="2.6" fill="#3a3a3a"/>
<circle cx="388.0" cy="814.0" r="2.6" fill="#3a3a3a"/>
<circle cx="228.0" cy="460.0" r="2.6" fill="#3a3a3a"/>
<circle cx="220.0" cy="760.0" r="2.6" fill="#3a3a3a"/>
<circle cx="662.0" cy="755.0" r="2.6" fill="#3a3a3a"/>
<circle cx="272.0" cy="510.0" r="2.6" fill="#3a3a3a"/>
<circle cx="490.0" cy="295.0" r="2.6" fill="#3a3a3a"/>
<circle cx="658.0" cy="842.0" r="2.6" fill="#3a3a3a"/>
<circle cx="190.0" cy="495.0" r="2.6" fill="#3a3a3a"/>
<circle cx="385.0" cy="630.0" r="2.6" fill="#3a3a3a"/>
<circle cx="272.0" cy="465.0" r="2.6" fill="#3a3a3a"/>
<circle cx="198.0" cy="780.0" r="2.6" fill="#3a3a3a"/>
<circle cx="264.0" cy="826.0" r="2.6" fill="#3a3a3a"/>
<circle cx="750.0" cy="395.0" r="2.6" fill="#3a3a3a"/>
<circle cx="750.0" cy="550.0" r="2.6" fill="#3a3a3a"/>
<circle cx="730.0" cy="250.0" r="2.6" fill="#3a3a3a"/>
<circle cx="245.0" cy="805.0" r="2.6" fill="#3a3a3a"/>
<circle cx="350.0" cy="560.0" r="2.6" fill="#3a3a3a"/>
<circle cx="570.0" cy="735.0" r="2.6" fill="#3a3a3a"/>
<circle cx="610.0" cy="255.0" r="2.6" fill="#3a3a3a"/>
<circle cx="750.0" cy="600.0" r="2.6" fill="#3a3a3a"/>
<circle cx="250.0" cy="450.0" r="2.6" fill="#3a3a3a"/>
<circle cx="890.0" cy="455.0" r="2.6" fill="#3a3a3a"/>
<circle cx="245.0" cy="485.0" r="2.6" fill="#3a3a3a"/>
<circle cx="505.0" cy="320.0" r="2.6" fill="#3a3a3a"/>
<circle cx="740.0" cy="835.0" r="2.6" fill="#3a3a3a"/>
<circle cx="610.0" cy="715.0" r="2.6" fill="#3a3a3a"/>
<circle cx="372.0" cy="784.0" r="2.6" fill="#3a3a3a"/>
<circle cx="350.0" cy="762.0" r="2.6" fill="#3a3a3a"/>
<circle cx="450.0" cy="270.0" r="2.6" fill="#3a3a3a"/>
<circle cx="300.0" cy="215.0" r="2.6" fill="#3a3a3a"/>
<circle cx="728.0" cy="812.0" r="2.6" fill="#3a3a3a"/>
<circle cx="710.0" cy="792.0" r="2.6" fill="#3a3a3a"/>
<circle cx="590.0" cy="215.0" r="2.6" fill="#3a3a3a"/>
<circle cx="650.0" cy="210.0" r="2.6" fill="#3a3a3a"/>
<circle cx="685.0" cy="230.0" r="2.6" fill="#3a3a3a"/>
<circle cx="515.0" cy="212.0" r="2.6" fill="#3a3a3a"/>
<circle cx="475.0" cy="715.0" r="2.6" fill="#3a3a3a"/>
<circle cx="638.0" cy="825.0" r="2.6" fill="#3a3a3a"/>
<circle cx="555.0" cy="182.0" r="2.6" fill="#3a3a3a"/>
<circle cx="700.0" cy="850.0" r="2.6" fill="#3a3a3a"/>
<circle cx="320.0" cy="380.0" r="2.6" fill="#3a3a3a"/>
<circle cx="635.0" cy="750.0" r="2.6" fill="#3a3a3a"/>
<circle cx="575.0" cy="682.0" r="2.6" fill="#3a3a3a"/>
<circle cx="528.0" cy="684.0" r="2.6" fill="#3a3a3a"/>
<circle cx="245.0" cy="250.0" r="2.6" fill="#3a3a3a"/>
<circle cx="402.0" cy="872.0" r="2.6" fill="#3a3a3a"/>
<circle cx="340.0" cy="525.0" r="2.6" fill="#3a3a3a"/>
<circle cx="170.0" cy="740.0" r="2.6" fill="#3a3a3a"/>
<circle cx="912.0" cy="440.0" r="2.6" fill="#3a3a3a"/>
<circle cx="730.0" cy="620.0" r="2.6" fill="#3a3a3a"/>
<circle cx="303.0" cy="850.0" r="2.6" fill="#3a3a3a"/>
<circle cx="340.0" cy="610.0" r="2.6" fill="#3a3a3a"/>
<circle cx="310.0" cy="798.0" r="2.6" fill="#3a3a3a"/>
<circle cx="870.0" cy="480.0" r="2.6" fill="#3a3a3a"/>
<circle cx="780.0" cy="195.0" r="2.6" fill="#3a3a3a"/>
<circle cx="715.0" cy="832.0" r="2.6" fill="#3a3a3a"/>
<circle cx="390.0" cy="540.0" r="2.6" fill="#3a3a3a"/>
<circle cx="305.0" cy="735.0" r="2.6" fill="#3a3a3a"/>
<circle cx="230.0" cy="715.0" r="2.6" fill="#3a3a3a"/>
<circle cx="655.0" cy="802.0" r="2.6" fill="#3a3a3a"/>
<circle cx="520.0" cy="710.0" r="2.6" fill="#3a3a3a"/>
<text x="550.0" y="200.0" font-size="22" font-weight="bold" fill="#3a2a1a" opacity="0.5" text-anchor="middle" stroke="#ece4cd" stroke-width="4" paint-order="stroke">프론티아</text>
<text x="650.0" y="810.0" font-size="22" font-weight="bold" fill="#3a2a1a" opacity="0.5" text-anchor="middle" stroke="#ece4cd" stroke-width="4" paint-order="stroke">눅세린</text>
<text x="850.0" y="510.0" font-size="22" font-weight="bold" fill="#3a2a1a" opacity="0.5" text-anchor="middle" stroke="#ece4cd" stroke-width="4" paint-order="stroke">센시르</text>
<text x="350.0" y="560.0" font-size="22" font-weight="bold" fill="#3a2a1a" opacity="0.5" text-anchor="middle" stroke="#ece4cd" stroke-width="4" paint-order="stroke">암디르</text>
<text x="215.0" y="490.0" font-size="22" font-weight="bold" fill="#3a2a1a" opacity="0.5" text-anchor="middle" stroke="#ece4cd" stroke-width="4" paint-order="stroke">아르스 모투스</text>
<text x="200.0" y="730.0" font-size="22" font-weight="bold" fill="#3a2a1a" opacity="0.5" text-anchor="middle" stroke="#ece4cd" stroke-width="4" paint-order="stroke">히프노레아</text>
<text x="340.0" y="830.0" font-size="22" font-weight="bold" fill="#3a2a1a" opacity="0.5" text-anchor="middle" stroke="#ece4cd" stroke-width="4" paint-order="stroke">오라쿨룸</text>
<text x="557.0" y="702.0" font-size="13" font-weight="bold" fill="#0a3a6a" text-anchor="start" stroke="#f6f1e2" stroke-width="2.3" paint-order="stroke">벨라사르</text>
<text x="557.0" y="422.0" font-size="13" font-weight="bold" fill="#0a3a6a" text-anchor="start" stroke="#f6f1e2" stroke-width="2.3" paint-order="stroke">조류 관문</text>
<text x="347.0" y="814.0" font-size="12.5" font-weight="bold" fill="#6a1414" text-anchor="start" stroke="#f6f1e2" stroke-width="2.3" paint-order="stroke">아카샤 성채</text>
<text x="687.0" y="819.0" font-size="12.5" font-weight="bold" fill="#6a1414" text-anchor="start" stroke="#f6f1e2" stroke-width="2.3" paint-order="stroke">아르도르</text>
<text x="557.0" y="254.0" font-size="12.5" font-weight="bold" fill="#6a1414" text-anchor="start" stroke="#f6f1e2" stroke-width="2.3" paint-order="stroke">아스트리온</text>
<text x="212.0" y="704.0" font-size="12.5" font-weight="bold" fill="#6a1414" text-anchor="start" stroke="#f6f1e2" stroke-width="2.3" paint-order="stroke">이렐사드</text>
<text x="377.0" y="599.0" font-size="12.5" font-weight="bold" fill="#6a1414" text-anchor="start" stroke="#f6f1e2" stroke-width="2.3" paint-order="stroke">메디우스 오르비스 단</text>
<text x="230.0" y="520.0" font-size="12.5" font-weight="bold" fill="#6a1414" text-anchor="middle" stroke="#f6f1e2" stroke-width="2.3" paint-order="stroke">모투스 폴리스</text>
<text x="847.0" y="464.0" font-size="12.5" font-weight="bold" fill="#6a1414" text-anchor="start" stroke="#f6f1e2" stroke-width="2.3" paint-order="stroke">리테노아</text>
<text x="457.0" y="492.0" font-size="8.5" font-weight="normal" font-style="italic" fill="#6a2a8a" text-anchor="start" stroke="#f6f1e2" stroke-width="2.3" paint-order="stroke">오리고 샘</text>
<text x="987.0" y="874.0" font-size="8.5" font-weight="normal" font-style="italic" fill="#6a2a8a" text-anchor="start" stroke="#f6f1e2" stroke-width="2.3" paint-order="stroke">세레눔의 정원</text>
<text x="165.0" y="656.0" font-size="8.5" font-weight="normal" font-style="italic" fill="#6a2a8a" text-anchor="start" stroke="#f6f1e2" stroke-width="2.3" paint-order="stroke">별가루 문턱</text>
<text x="208.0" y="535.0" font-size="8" font-weight="normal" fill="#2a2a2a" text-anchor="middle" stroke="#f6f1e2" stroke-width="2.3" paint-order="stroke">아쿠스 대장간</text>
<text x="687.0" y="389.0" font-size="8" font-weight="normal" fill="#2a2a2a" text-anchor="start" stroke="#f6f1e2" stroke-width="2.3" paint-order="stroke">아나세르</text>
<text x="817.0" y="429.0" font-size="8" font-weight="normal" fill="#2a2a2a" text-anchor="start" stroke="#f6f1e2" stroke-width="2.3" paint-order="stroke">아나타 정원</text>
<text x="178.0" y="713.0" font-size="8" font-weight="normal" fill="#2a2a2a" text-anchor="end" stroke="#f6f1e2" stroke-width="2.3" paint-order="stroke">아르카눔 봉인서고</text>
<text x="677.0" y="294.0" font-size="8" font-weight="normal" fill="#2a2a2a" text-anchor="start" stroke="#f6f1e2" stroke-width="2.3" paint-order="stroke">아르세니아</text>
<text x="313.0" y="574.0" font-size="8" font-weight="normal" fill="#2a2a2a" text-anchor="end" stroke="#f6f1e2" stroke-width="2.3" paint-order="stroke">아테르 저장고</text>
<text x="702.0" y="499.0" font-size="8" font-weight="normal" fill="#2a2a2a" text-anchor="start" stroke="#f6f1e2" stroke-width="2.3" paint-order="stroke">아우룸 폐허</text>
<text x="225.0" y="555.0" font-size="8" font-weight="normal" fill="#2a2a2a" text-anchor="middle" stroke="#f6f1e2" stroke-width="2.3" paint-order="stroke">균형 첨탑</text>
<text x="387.0" y="499.0" font-size="8" font-weight="normal" fill="#2a2a2a" text-anchor="start" stroke="#f6f1e2" stroke-width="2.3" paint-order="stroke">바란텔</text>
<text x="178.0" y="692.0" font-size="8" font-weight="normal" fill="#2a2a2a" text-anchor="end" stroke="#f6f1e2" stroke-width="2.3" paint-order="stroke">브리멜론</text>
<text x="271.0" y="848.0" font-size="8" font-weight="normal" fill="#2a2a2a" text-anchor="end" stroke="#f6f1e2" stroke-width="2.3" paint-order="stroke">카론 선착장</text>
<text x="327.0" y="754.0" font-size="8" font-weight="normal" fill="#2a2a2a" text-anchor="start" stroke="#f6f1e2" stroke-width="2.3" paint-order="stroke">크로노텔</text>
<text x="712.0" y="759.0" font-size="8" font-weight="normal" fill="#2a2a2a" text-anchor="start" stroke="#f6f1e2" stroke-width="2.3" paint-order="stroke">크리스탈리스 호수정원</text>
<text x="689.0" y="792.0" font-size="8" font-weight="normal" fill="#2a2a2a" text-anchor="start" stroke="#f6f1e2" stroke-width="2.3" paint-order="stroke">쿠피도 옥좌실</text>
<text x="232.0" y="678.0" font-size="8" font-weight="normal" fill="#2a2a2a" text-anchor="start" stroke="#f6f1e2" stroke-width="2.3" paint-order="stroke">쿠스토디아 구역</text>
<text x="207.0" y="469.0" font-size="8" font-weight="normal" fill="#2a2a2a" text-anchor="start" stroke="#f6f1e2" stroke-width="2.3" paint-order="stroke">델프가르</text>
<text x="866.0" y="445.0" font-size="8" font-weight="normal" fill="#2a2a2a" text-anchor="start" stroke="#f6f1e2" stroke-width="2.3" paint-order="stroke">디아파손 홀</text>
<text x="847.0" y="194.0" font-size="8" font-weight="normal" fill="#2a2a2a" text-anchor="start" stroke="#f6f1e2" stroke-width="2.3" paint-order="stroke">도크사 아르크스</text>
<text x="892.0" y="514.0" font-size="8" font-weight="normal" fill="#2a2a2a" text-anchor="start" stroke="#f6f1e2" stroke-width="2.3" paint-order="stroke">드레오렌</text>
<text x="772.0" y="682.0" font-size="8" font-weight="normal" fill="#2a2a2a" text-anchor="start" stroke="#f6f1e2" stroke-width="2.3" paint-order="stroke">두손 마당</text>
<text x="825.0" y="496.0" font-size="8" font-weight="normal" fill="#2a2a2a" text-anchor="middle" stroke="#f6f1e2" stroke-width="2.3" paint-order="stroke">에코 샘</text>
<text x="817.0" y="219.0" font-size="8" font-weight="normal" fill="#2a2a2a" text-anchor="start" stroke="#f6f1e2" stroke-width="2.3" paint-order="stroke">에딕툼 감시탑</text>
<text x="388.0" y="798.0" font-size="8" font-weight="normal" fill="#2a2a2a" text-anchor="middle" stroke="#f6f1e2" stroke-width="2.3" paint-order="stroke">고대 서사의 전당</text>
<text x="235.0" y="453.0" font-size="8" font-weight="normal" fill="#2a2a2a" text-anchor="start" stroke="#f6f1e2" stroke-width="2.3" paint-order="stroke">에토스 춤마당</text>
<text x="227.0" y="764.0" font-size="8" font-weight="normal" fill="#2a2a2a" text-anchor="start" stroke="#f6f1e2" stroke-width="2.3" paint-order="stroke">페쿤디아 리멘</text>
<text x="655.0" y="759.0" font-size="8" font-weight="normal" fill="#2a2a2a" text-anchor="end" stroke="#f6f1e2" stroke-width="2.3" paint-order="stroke">피데스 거래소</text>
<text x="279.0" y="514.0" font-size="8" font-weight="normal" fill="#2a2a2a" text-anchor="start" stroke="#f6f1e2" stroke-width="2.3" paint-order="stroke">그라베릭</text>
<text x="497.0" y="299.0" font-size="8" font-weight="normal" fill="#2a2a2a" text-anchor="start" stroke="#f6f1e2" stroke-width="2.3" paint-order="stroke">그리세오 굴뚝 지구</text>
<text x="665.0" y="846.0" font-size="8" font-weight="normal" fill="#2a2a2a" text-anchor="start" stroke="#f6f1e2" stroke-width="2.3" paint-order="stroke">그리세오 구역</text>
<text x="197.0" y="499.0" font-size="8" font-weight="normal" fill="#2a2a2a" text-anchor="start" stroke="#f6f1e2" stroke-width="2.3" paint-order="stroke">무한 계단</text>
<text x="392.0" y="634.0" font-size="8" font-weight="normal" fill="#2a2a2a" text-anchor="start" stroke="#f6f1e2" stroke-width="2.3" paint-order="stroke">칼르렌</text>
<text x="279.0" y="469.0" font-size="8" font-weight="normal" fill="#2a2a2a" text-anchor="start" stroke="#f6f1e2" stroke-width="2.3" paint-order="stroke">카라카사의 옛 승리터</text>
<text x="205.0" y="784.0" font-size="8" font-weight="normal" fill="#2a2a2a" text-anchor="start" stroke="#f6f1e2" stroke-width="2.3" paint-order="stroke">라쿠나 서가</text>
<text x="257.0" y="830.0" font-size="8" font-weight="normal" fill="#2a2a2a" text-anchor="end" stroke="#f6f1e2" stroke-width="2.3" paint-order="stroke">라쿠스 물가</text>
<text x="757.0" y="399.0" font-size="8" font-weight="normal" fill="#2a2a2a" text-anchor="start" stroke="#f6f1e2" stroke-width="2.3" paint-order="stroke">라세드린</text>
<text x="757.0" y="554.0" font-size="8" font-weight="normal" fill="#2a2a2a" text-anchor="start" stroke="#f6f1e2" stroke-width="2.3" paint-order="stroke">라텐스</text>
<text x="737.0" y="254.0" font-size="8" font-weight="normal" fill="#2a2a2a" text-anchor="start" stroke="#f6f1e2" stroke-width="2.3" paint-order="stroke">레비오렌</text>
<text x="252.0" y="809.0" font-size="8" font-weight="normal" fill="#2a2a2a" text-anchor="start" stroke="#f6f1e2" stroke-width="2.3" paint-order="stroke">리브라라</text>
<text x="350.0" y="544.0" font-size="8" font-weight="normal" fill="#2a2a2a" text-anchor="middle" stroke="#f6f1e2" stroke-width="2.3" paint-order="stroke">릴로스</text>
<text x="577.0" y="739.0" font-size="8" font-weight="normal" fill="#2a2a2a" text-anchor="start" stroke="#f6f1e2" stroke-width="2.3" paint-order="stroke">로루멘</text>
<text x="610.0" y="270.0" font-size="8" font-weight="normal" fill="#2a2a2a" text-anchor="middle" stroke="#f6f1e2" stroke-width="2.3" paint-order="stroke">마그나 아바쿠스</text>
<text x="757.0" y="604.0" font-size="8" font-weight="normal" fill="#2a2a2a" text-anchor="start" stroke="#f6f1e2" stroke-width="2.3" paint-order="stroke">몸울림 우물</text>
<text x="250.0" y="441.0" font-size="8" font-weight="normal" fill="#2a2a2a" text-anchor="middle" stroke="#f6f1e2" stroke-width="2.3" paint-order="stroke">모라 손공방</text>
<text x="897.0" y="459.0" font-size="8" font-weight="normal" fill="#2a2a2a" text-anchor="start" stroke="#f6f1e2" stroke-width="2.3" paint-order="stroke">모라 우체국</text>
<text x="252.0" y="489.0" font-size="8" font-weight="normal" fill="#2a2a2a" text-anchor="start" stroke="#f6f1e2" stroke-width="2.3" paint-order="stroke">모르파 전당</text>
<text x="512.0" y="324.0" font-size="8" font-weight="normal" fill="#2a2a2a" text-anchor="start" stroke="#f6f1e2" stroke-width="2.3" paint-order="stroke">무타 밥터</text>
<text x="747.0" y="839.0" font-size="8" font-weight="normal" fill="#2a2a2a" text-anchor="start" stroke="#f6f1e2" stroke-width="2.3" paint-order="stroke">네불라 안락거리</text>
<text x="617.0" y="719.0" font-size="8" font-weight="normal" fill="#2a2a2a" text-anchor="start" stroke="#f6f1e2" stroke-width="2.3" paint-order="stroke">닐세로안</text>
<text x="379.0" y="777.0" font-size="8" font-weight="normal" fill="#2a2a2a" text-anchor="start" stroke="#f6f1e2" stroke-width="2.3" paint-order="stroke">노멘 계단</text>
<text x="357.0" y="766.0" font-size="8" font-weight="normal" fill="#2a2a2a" text-anchor="start" stroke="#f6f1e2" stroke-width="2.3" paint-order="stroke">노멘초 마당</text>
<text x="457.0" y="274.0" font-size="8" font-weight="normal" fill="#2a2a2a" text-anchor="start" stroke="#f6f1e2" stroke-width="2.3" paint-order="stroke">노비스 잔 선술집</text>
<text x="307.0" y="219.0" font-size="8" font-weight="normal" fill="#2a2a2a" text-anchor="start" stroke="#f6f1e2" stroke-width="2.3" paint-order="stroke">옵세르바 A-1</text>
<text x="728.0" y="803.0" font-size="8" font-weight="normal" fill="#2a2a2a" text-anchor="middle" stroke="#f6f1e2" stroke-width="2.3" paint-order="stroke">팔리다 미술관</text>
<text x="710.0" y="776.0" font-size="8" font-weight="normal" fill="#2a2a2a" text-anchor="middle" stroke="#f6f1e2" stroke-width="2.3" paint-order="stroke">프라에코 탑</text>
<text x="597.0" y="219.0" font-size="8" font-weight="normal" fill="#2a2a2a" text-anchor="start" stroke="#f6f1e2" stroke-width="2.3" paint-order="stroke">프라이토르 투기장</text>
<text x="657.0" y="203.0" font-size="8" font-weight="normal" fill="#2a2a2a" text-anchor="start" stroke="#f6f1e2" stroke-width="2.3" paint-order="stroke">프라이오라 관측소</text>
<text x="692.0" y="234.0" font-size="8" font-weight="normal" fill="#2a2a2a" text-anchor="start" stroke="#f6f1e2" stroke-width="2.3" paint-order="stroke">프로렉타</text>
<text x="515.0" y="227.0" font-size="8" font-weight="normal" fill="#2a2a2a" text-anchor="middle" stroke="#f6f1e2" stroke-width="2.3" paint-order="stroke">레기움 서고</text>
<text x="482.0" y="719.0" font-size="8" font-weight="normal" fill="#2a2a2a" text-anchor="start" stroke="#f6f1e2" stroke-width="2.3" paint-order="stroke">리멘 등불</text>
<text x="649.0" y="835.0" font-size="8" font-weight="normal" fill="#2a2a2a" text-anchor="start" stroke="#f6f1e2" stroke-width="2.3" paint-order="stroke">리타스 지하정원</text>
<text x="562.0" y="186.0" font-size="8" font-weight="normal" fill="#2a2a2a" text-anchor="start" stroke="#f6f1e2" stroke-width="2.3" paint-order="stroke">리토르노 광장</text>
<text x="700.0" y="865.0" font-size="8" font-weight="normal" fill="#2a2a2a" text-anchor="middle" stroke="#f6f1e2" stroke-width="2.3" paint-order="stroke">루이나 시장터</text>
<text x="327.0" y="384.0" font-size="8" font-weight="normal" fill="#2a2a2a" text-anchor="start" stroke="#f6f1e2" stroke-width="2.3" paint-order="stroke">살리엔티아 관문</text>
<text x="642.0" y="743.0" font-size="8" font-weight="normal" fill="#2a2a2a" text-anchor="start" stroke="#f6f1e2" stroke-width="2.3" paint-order="stroke">세렌델</text>
<text x="582.0" y="675.0" font-size="8" font-weight="normal" fill="#2a2a2a" text-anchor="start" stroke="#f6f1e2" stroke-width="2.3" paint-order="stroke">세리카 매듭골목</text>
<text x="521.0" y="688.0" font-size="8" font-weight="normal" fill="#2a2a2a" text-anchor="end" stroke="#f6f1e2" stroke-width="2.3" paint-order="stroke">세르노 골목</text>
<text x="252.0" y="254.0" font-size="8" font-weight="normal" fill="#2a2a2a" text-anchor="start" stroke="#f6f1e2" stroke-width="2.3" paint-order="stroke">시그마-7</text>
<text x="409.0" y="876.0" font-size="8" font-weight="normal" fill="#2a2a2a" text-anchor="start" stroke="#f6f1e2" stroke-width="2.3" paint-order="stroke">실렌카르</text>
<text x="347.0" y="529.0" font-size="8" font-weight="normal" fill="#2a2a2a" text-anchor="start" stroke="#f6f1e2" stroke-width="2.3" paint-order="stroke">소리 없는 우물</text>
<text x="170.0" y="755.0" font-size="8" font-weight="normal" fill="#2a2a2a" text-anchor="middle" stroke="#f6f1e2" stroke-width="2.3" paint-order="stroke">실로에르</text>
<text x="919.0" y="444.0" font-size="8" font-weight="normal" fill="#2a2a2a" text-anchor="start" stroke="#f6f1e2" stroke-width="2.3" paint-order="stroke">실베스틴</text>
<text x="737.0" y="624.0" font-size="8" font-weight="normal" fill="#2a2a2a" text-anchor="start" stroke="#f6f1e2" stroke-width="2.3" paint-order="stroke">소포르 마을</text>
<text x="310.0" y="854.0" font-size="8" font-weight="normal" fill="#2a2a2a" text-anchor="start" stroke="#f6f1e2" stroke-width="2.3" paint-order="stroke">별의 언어 천문대</text>
<text x="347.0" y="614.0" font-size="8" font-weight="normal" fill="#2a2a2a" text-anchor="start" stroke="#f6f1e2" stroke-width="2.3" paint-order="stroke">타키투스 동굴</text>
<text x="310.0" y="789.0" font-size="8" font-weight="normal" fill="#2a2a2a" text-anchor="middle" stroke="#f6f1e2" stroke-width="2.3" paint-order="stroke">타키투스 도서관</text>
<text x="877.0" y="484.0" font-size="8" font-weight="normal" fill="#2a2a2a" text-anchor="start" stroke="#f6f1e2" stroke-width="2.3" paint-order="stroke">템페라 광장</text>
<text x="787.0" y="199.0" font-size="8" font-weight="normal" fill="#2a2a2a" text-anchor="start" stroke="#f6f1e2" stroke-width="2.3" paint-order="stroke">트리아넬</text>
<text x="722.0" y="836.0" font-size="8" font-weight="normal" fill="#2a2a2a" text-anchor="start" stroke="#f6f1e2" stroke-width="2.3" paint-order="stroke">울티마 화롯가</text>
<text x="397.0" y="544.0" font-size="8" font-weight="normal" fill="#2a2a2a" text-anchor="start" stroke="#f6f1e2" stroke-width="2.3" paint-order="stroke">움브라 골짜기</text>
<text x="312.0" y="739.0" font-size="8" font-weight="normal" fill="#2a2a2a" text-anchor="start" stroke="#f6f1e2" stroke-width="2.3" paint-order="stroke">바레노스</text>
<text x="237.0" y="719.0" font-size="8" font-weight="normal" fill="#2a2a2a" text-anchor="start" stroke="#f6f1e2" stroke-width="2.3" paint-order="stroke">벨카라일</text>
<text x="648.0" y="795.0" font-size="8" font-weight="normal" fill="#2a2a2a" text-anchor="end" stroke="#f6f1e2" stroke-width="2.3" paint-order="stroke">베르붐 관제실</text>
<text x="527.0" y="714.0" font-size="8" font-weight="normal" fill="#2a2a2a" text-anchor="start" stroke="#f6f1e2" stroke-width="2.3" paint-order="stroke">베투스 코르 지구</text>
<text x="550" y="36" font-size="28" font-weight="bold" text-anchor="middle" fill="#26364a">네우로시아 전도</text>
<circle cx="1026" cy="92" r="24" fill="#f6f1e2" stroke="#6f5f42" stroke-width="1.5"/>
<path d="M 1026 72 L 1020 92 L 1026 112 L 1032 92 Z" fill="#8a1a1a"/>
<text x="1026" y="66" font-size="13" text-anchor="middle" font-weight="bold" fill="#3a2a1a">N</text>
<rect x="50" y="1074" width="200" height="6" fill="#26364a"/>
<text x="50" y="1070" font-size="10" fill="#26364a">0</text>
<text x="218" y="1070" font-size="10" fill="#26364a">200 grid</text>
<g transform="translate(58,58)" font-size="11" fill="#26364a">
<rect x="-5" y="-5" width="172" height="130" rx="4" fill="#f6f1e2" opacity="0.88" stroke="#6f5f42" stroke-width="0.8"/>
<rect x="2" y="4" width="9" height="9" fill="#1a5a8a" transform="rotate(45 6 8)"/><text x="20" y="12">항구도시</text>
<circle cx="6" cy="28" r="5" fill="#8a1a1a"/><text x="20" y="32">수도</text>
<circle cx="6" cy="46" r="2.6" fill="#3a3a3a"/><text x="20" y="50">도시·시설</text>
<line x1="1" y1="64" x2="12" y2="64" stroke="#255f8a" stroke-width="2.6" stroke-dasharray="2 4"/><text x="20" y="68">배 항로(정본)</text>
<line x1="1" y1="80" x2="12" y2="80" stroke="#4f8fb0" stroke-width="3"/><text x="20" y="84">강·수로</text>
<line x1="1" y1="96" x2="12" y2="96" stroke="#7a4a2a" stroke-width="3"/><text x="20" y="100">넥서스 선로</text>
<rect x="1" y="110" width="11" height="8" fill="#e7dcbf" stroke="#5f7079" stroke-width="0.8"/><text x="20" y="118">다리·지협</text>
</g>
</svg>